# xmcd CD database file
#
# Track frame offsets:
#	150
#	21664
#	42755
#	62786
#	81426
#	100748
#	114939
#	134494
#	158567
#	185667
#	209946
#
# Disc length: 2938 seconds
#
# Revision: 0
# Processed by: cddbd v1.5.1PL0 Copyright (c) Steve Scherf et al.
# Submitted via: CDex 1.51
#
DISCID=9f0b780b
DTITLE=Larry Garner - Standing Room Only
DYEAR=1998
DGENRE=Blues
TTITLE0=A Driving Woman
TTITLE1=Do Your Personal Thing
TTITLE2=Strangers Blues
TTITLE3=Keep The Money
TTITLE4=Don't Start Crying
TTITLE5=Out in The Country
TTITLE6=I'll Run Cross You
TTITLE7=PMS
TTITLE8=Drifter
TTITLE9=Cold Chills
TTITLE10=Last Encore
EXTD=YEAR: 1998
EXTT0=
EXTT1=
EXTT2=
EXTT3=
EXTT4=
EXTT5=
EXTT6=
EXTT7=
EXTT8=
EXTT9=
EXTT10=
PLAYORDER=
